# xmcd
#
# Track frame offsets:
#	150
#	10926
#	24023
#	41142
#	60939
#	79862
#	90555
#	106904
#	122659
#	139017
#	157333
#	173372
#	190005
#	207181
#	220160
#	231926
#	249972
#	272919
#	286209
#	303672
#	322286
#	338532
#
# Disc length: 4736 seconds
#
# Revision: 0
# Processed by: cddbd v1.5.2PL0 Copyright (c) Steve Scherf et al.
# Submitted via: EasyCDDAExtractor 2010.4.0.0
#
DISCID=2b127e16
DTITLE=Various Artist - Country Hits, Vol. 33
DYEAR=2010
DGENRE=Country
TTITLE0=Slim Dusty - Recycled Ringer
TTITLE1=Sammy Kershaw - She Don T Know She S Beautiful
TTITLE2=Terri Clark - Everytime I Cry
TTITLE3=Sammy Kershaw - More Than I Can Say
TTITLE4=Slim Dusty - Star Trucker
TTITLE5=Steve Lee - Devil's Right Hand
TTITLE6=Tractors - It's A Beautiful Thing
TTITLE7=Slim Dusty - The Lady Is A Truckie
TTITLE8=Tracy Lawrence - Sticks And Stones
TTITLE9=Sawyer Brown - Treat Her Right
TTITLE10=Terri Clark - You're Easy On The Eyes
TTITLE11=Sammy Kershaw - You Ve Got A Lock On My Love
TTITLE12=Terri Clark - Everytime I Cry
TTITLE13=Sawyer Brown - Round Here
TTITLE14=Slim Dusty - A Bad Day's Fishing
TTITLE15=Terri Clark - This Ole Heart
TTITLE16=Trisha Yearwood - New Kid In Town
TTITLE17=Sammy Kershaw - Memphis, Tennessee
TTITLE18=Slim Dusty - Ringers, Rigs and Drivers
TTITLE19=Steve Lee - Don't Take Your Guns To Town
TTITLE20=Tracy Lawrence - Can't Break It To My Heart
TTITLE21=Trisha Yearwood - You Don't Have To Move Tha
EXTD=
EXTT0=
EXTT1=
EXTT2=
EXTT3=
EXTT4=
EXTT5=
EXTT6=
EXTT7=
EXTT8=
EXTT9=
EXTT10=
EXTT11=
EXTT12=
EXTT13=
EXTT14=
EXTT15=
EXTT16=
EXTT17=
EXTT18=
EXTT19=
EXTT20=
EXTT21=
PLAYORDER=
